<svg width="92" height="91" viewBox="0 0 92 91" fill="none" xmlns="http://www.w3.org/2000/svg">
<path d="M70.4915 36.8394H41.7651C36.0871 36.8394 31.4841 41.4652 31.4841 47.1713C31.4841 52.8775 36.0871 57.5033 41.7651 57.5033H70.4915C76.1696 57.5033 80.7726 52.8775 80.7726 47.1713C80.7726 41.4652 76.1696 36.8394 70.4915 36.8394Z" fill="#6C6FC4"/>
<path d="M70.4915 7.36301H21.5055C15.8275 7.36301 11.2245 11.9888 11.2245 17.6949C11.2245 23.4011 15.8275 28.0269 21.5055 28.0269H70.4915C76.1696 28.0269 80.7726 23.4011 80.7726 17.6949C80.7726 11.9888 76.1696 7.36301 70.4915 7.36301Z" fill="#6C6FC4"/>
<path d="M21.5055 83.637C27.1836 83.637 31.7865 79.0112 31.7865 73.305C31.7865 67.5989 27.1836 62.9731 21.5055 62.9731C15.8275 62.9731 11.2245 67.5989 11.2245 73.305C11.2245 79.0112 15.8275 83.637 21.5055 83.637Z" fill="#6C6FC4"/>
</svg>
