<svg width="24" height="24" viewBox="0 0 24 24" fill="none" xmlns="http://www.w3.org/2000/svg">
<mask id="mask0_66_1269" style="mask-type:alpha" x="0" y="0" width="24" height="24">
<rect width="24" height="24" fill="#D9D9D9"/>
</mask>
<g mask="url(#mask0_66_1269)">
<path d="M7 19C5.61667 19 4.43767 18.5123 3.463 17.537C2.48767 16.5623 2 15.3833 2 14C2 12.6167 2.48767 11.4373 3.463 10.462C4.43767 9.48733 5.61667 9 7 9C7.96667 9 8.87933 9.275 9.738 9.825C10.596 10.375 11.2083 11.1 11.575 12H22V16H20V19H16V16H11.575C11.2083 16.9 10.596 17.625 9.738 18.175C8.87933 18.725 7.96667 19 7 19ZM7 18C8.1 18 8.98333 17.6627 9.65 16.988C10.3167 16.3127 10.7167 15.65 10.85 15H17V18H19V15H21V13H10.85C10.7167 12.35 10.3167 11.6873 9.65 11.012C8.98333 10.3373 8.1 10 7 10C5.9 10 4.95833 10.3917 4.175 11.175C3.39167 11.9583 3 12.9 3 14C3 15.1 3.39167 16.0417 4.175 16.825C4.95833 17.6083 5.9 18 7 18ZM7 15.225C7.33333 15.225 7.62067 15.1043 7.862 14.863C8.104 14.621 8.225 14.3333 8.225 14C8.225 13.6667 8.104 13.379 7.862 13.137C7.62067 12.8957 7.33333 12.775 7 12.775C6.66667 12.775 6.37933 12.8957 6.138 13.137C5.896 13.379 5.775 13.6667 5.775 14C5.775 14.3333 5.896 14.621 6.138 14.863C6.37933 15.1043 6.66667 15.225 7 15.225Z" fill="#1C1B1F"/>
</g>
</svg>
